<svg width="319" height="17" viewBox="0 0 319 17" fill="none" xmlns="http://www.w3.org/2000/svg">
    <path d="M85.66 0.84H90.64C91.1867 0.84 91.74 0.9 92.3 1.02C92.86 1.12667 93.36 1.32 93.8 1.6C94.2533 1.86667 94.62 2.23333 94.9 2.7C95.1933 3.16667 95.34 3.76 95.34 4.48C95.34 5.24 95.12 5.88667 94.68 6.42C94.24 6.95333 93.66 7.32 92.94 7.52V7.56C93.3667 7.62667 93.7667 7.75333 94.14 7.94C94.5133 8.11333 94.8333 8.34667 95.1 8.64C95.38 8.92 95.5933 9.26 95.74 9.66C95.9 10.0467 95.98 10.4867 95.98 10.98C95.98 11.66 95.84 12.2533 95.56 12.76C95.28 13.2667 94.8933 13.6867 94.4 14.02C93.92 14.3533 93.3533 14.6 92.7 14.76C92.06 14.92 91.3733 15 90.64 15H85.66V0.84ZM88.1 6.74H90.42C90.7533 6.74 91.0667 6.70667 91.36 6.64C91.6667 6.56 91.9333 6.44 92.16 6.28C92.3867 6.12 92.5667 5.92 92.7 5.68C92.8333 5.42667 92.9 5.12 92.9 4.76C92.9 4.09333 92.6467 3.61333 92.14 3.32C91.6333 3.02667 90.9733 2.88 90.16 2.88H88.1V6.74ZM88.1 12.94H90.36C90.7467 12.94 91.1267 12.9067 91.5 12.84C91.8733 12.76 92.2 12.64 92.48 12.48C92.7733 12.3067 93.0067 12.08 93.18 11.8C93.3667 11.52 93.46 11.1733 93.46 10.76C93.46 10 93.1933 9.46 92.66 9.14C92.1267 8.80667 91.4 8.64 90.48 8.64H88.1V12.94ZM101.147 12.84H108.187V15H98.7069V0.84H107.887V3H101.147V6.68H107.467V8.74H101.147V12.84ZM110.699 0.84H115.339C116.086 0.84 116.779 0.92 117.419 1.08C118.059 1.22667 118.606 1.46667 119.059 1.8C119.526 2.13333 119.886 2.56 120.139 3.08C120.406 3.58667 120.539 4.20667 120.539 4.94C120.539 5.67333 120.399 6.30667 120.119 6.84C119.852 7.36 119.479 7.78667 118.999 8.12C118.532 8.45333 117.979 8.7 117.339 8.86C116.699 9.00667 116.012 9.08 115.279 9.08H113.199V15H110.699V0.84ZM113.199 7.06H115.099C115.526 7.06 115.919 7.02 116.279 6.94C116.639 6.86 116.946 6.73333 117.199 6.56C117.466 6.38667 117.666 6.16667 117.799 5.9C117.946 5.63333 118.019 5.31333 118.019 4.94C118.019 4.55333 117.946 4.23333 117.799 3.98C117.652 3.71333 117.452 3.5 117.199 3.34C116.946 3.18 116.639 3.06667 116.279 3C115.932 2.93333 115.552 2.9 115.139 2.9H113.199V7.06ZM122.945 0.84H125.445V6.56H131.985V0.84H134.485V15H131.985V8.72H125.445V15H122.945V0.84ZM139.148 0.84L142.848 8.92L146.428 0.84H149.168L144.068 11.92C143.842 12.4133 143.595 12.8667 143.328 13.28C143.062 13.6933 142.748 14.0533 142.388 14.36C142.028 14.6533 141.615 14.8867 141.148 15.06C140.695 15.2333 140.168 15.32 139.568 15.32C139.142 15.32 138.775 15.2867 138.468 15.22C138.175 15.1667 137.922 15.0933 137.708 15C137.508 14.9067 137.335 14.8067 137.188 14.7C137.042 14.5933 136.915 14.4933 136.808 14.4L138.268 12.56C138.415 12.6933 138.608 12.8333 138.848 12.98C139.102 13.1267 139.402 13.2 139.748 13.2C140.122 13.2 140.448 13.0867 140.728 12.86C141.008 12.62 141.275 12.2733 141.528 11.82L136.368 0.84H139.148ZM156.176 15H153.656V3H149.316V0.84H160.516V3H156.176V15ZM162.34 0.84H164.84V6.28H166.68C167.453 6.28 168.166 6.36667 168.82 6.54C169.486 6.7 170.06 6.96 170.54 7.32C171.02 7.66667 171.393 8.10667 171.66 8.64C171.94 9.16 172.08 9.78 172.08 10.5C172.08 11.2333 171.94 11.88 171.66 12.44C171.38 13 170.993 13.4733 170.5 13.86C170.02 14.2333 169.446 14.52 168.78 14.72C168.113 14.9067 167.393 15 166.62 15H162.34V0.84ZM164.84 8.42V12.86H166.76C167.733 12.86 168.44 12.6533 168.88 12.24C169.333 11.8133 169.56 11.2667 169.56 10.6C169.56 9.92 169.333 9.38667 168.88 9C168.426 8.61333 167.72 8.42 166.76 8.42H164.84ZM186.844 12.9C186.284 13.62 185.551 14.2133 184.644 14.68C183.751 15.1467 182.684 15.38 181.444 15.38C180.364 15.38 179.364 15.2 178.444 14.84C177.524 14.4667 176.731 13.9533 176.064 13.3C175.398 12.6333 174.871 11.84 174.484 10.92C174.111 10 173.924 8.99333 173.924 7.9C173.924 6.79333 174.118 5.78667 174.504 4.88C174.891 3.96 175.418 3.17333 176.084 2.52C176.764 1.86667 177.564 1.36 178.484 0.999999C179.404 0.639999 180.398 0.459999 181.464 0.459999C182.491 0.459999 183.471 0.653332 184.404 1.04C185.351 1.41333 186.098 1.94 186.644 2.62L184.844 4.28C184.538 3.82667 184.091 3.45333 183.504 3.16C182.918 2.86667 182.264 2.72 181.544 2.72C180.798 2.72 180.124 2.86 179.524 3.14C178.924 3.40667 178.411 3.77333 177.984 4.24C177.558 4.70667 177.224 5.25333 176.984 5.88C176.758 6.50667 176.644 7.18 176.644 7.9C176.644 8.63333 176.758 9.32 176.984 9.96C177.224 10.5867 177.551 11.1333 177.964 11.6C178.391 12.0667 178.904 12.4333 179.504 12.7C180.104 12.9667 180.778 13.1 181.524 13.1C182.258 13.1 182.931 12.9533 183.544 12.66C184.158 12.3533 184.658 11.92 185.044 11.36L186.844 12.9ZM196.325 3H194.325C193.165 3 192.305 3.16667 191.745 3.5C191.185 3.82 190.905 4.33333 190.905 5.04C190.905 5.64 191.178 6.12 191.725 6.48C192.272 6.84 193.138 7.02 194.325 7.02H196.325V3ZM191.425 8.26C190.465 8.1 189.692 7.74667 189.105 7.2C188.532 6.64 188.245 5.88667 188.245 4.94C188.232 3.60667 188.732 2.59333 189.745 1.9C190.772 1.19333 192.218 0.84 194.085 0.84H198.825V15H196.325V9.18H194.925C194.298 9.18 193.725 9.29333 193.205 9.52C192.685 9.74667 192.225 10.0933 191.825 10.56C191.425 11.0267 191.092 11.6333 190.825 12.38C190.572 13.1133 190.392 13.9867 190.285 15H187.565C187.618 14.16 187.758 13.3867 187.985 12.68C188.212 11.96 188.492 11.32 188.825 10.76C189.172 10.1867 189.565 9.69333 190.005 9.28C190.445 8.86667 190.918 8.54 191.425 8.3V8.26ZM207.144 15V0.84H209.644V6.38C209.911 6.38 210.171 6.39333 210.424 6.42C210.678 6.43333 210.931 6.45333 211.184 6.48L215.984 0.84H218.724L213.664 7.06C215.091 7.62 216.231 8.54 217.084 9.82C217.951 11.1 218.571 12.8267 218.944 15H216.204C215.991 13.8667 215.711 12.8867 215.364 12.06C215.031 11.2333 214.604 10.5533 214.084 10.02C213.564 9.48667 212.938 9.1 212.204 8.86C211.471 8.62 210.618 8.51333 209.644 8.54V15H207.144ZM238.407 12.9C237.847 13.62 237.114 14.2133 236.207 14.68C235.314 15.1467 234.247 15.38 233.007 15.38C231.927 15.38 230.927 15.2 230.007 14.84C229.087 14.4667 228.294 13.9533 227.627 13.3C226.96 12.6333 226.434 11.84 226.047 10.92C225.674 10 225.487 8.99333 225.487 7.9C225.487 6.79333 225.68 5.78667 226.067 4.88C226.454 3.96 226.98 3.17333 227.647 2.52C228.327 1.86667 229.127 1.36 230.047 0.999999C230.967 0.639999 231.96 0.459999 233.027 0.459999C234.054 0.459999 235.034 0.653332 235.967 1.04C236.914 1.41333 237.66 1.94 238.207 2.62L236.407 4.28C236.1 3.82667 235.654 3.45333 235.067 3.16C234.48 2.86667 233.827 2.72 233.107 2.72C232.36 2.72 231.687 2.86 231.087 3.14C230.487 3.40667 229.974 3.77333 229.547 4.24C229.12 4.70667 228.787 5.25333 228.547 5.88C228.32 6.50667 228.207 7.18 228.207 7.9C228.207 8.63333 228.32 9.32 228.547 9.96C228.787 10.5867 229.114 11.1333 229.527 11.6C229.954 12.0667 230.467 12.4333 231.067 12.7C231.667 12.9667 232.34 13.1 233.087 13.1C233.82 13.1 234.494 12.9533 235.107 12.66C235.72 12.3533 236.22 11.92 236.607 11.36L238.407 12.9ZM245.708 15H243.188V3H238.848V0.84H250.048V3H245.708V15ZM252.891 15H250.151L256.171 0.84H258.611L264.591 15H261.791L260.491 11.78H254.151L252.891 15ZM254.931 9.7H259.731L257.351 3.62L254.931 9.7ZM271.547 15H269.027V3H264.687V0.84H275.887V3H271.547V15ZM277.711 0.84H280.211V6.28H282.051C282.824 6.28 283.537 6.36667 284.191 6.54C284.857 6.7 285.431 6.96 285.911 7.32C286.391 7.66667 286.764 8.10667 287.031 8.64C287.311 9.16 287.451 9.78 287.451 10.5C287.451 11.2333 287.311 11.88 287.031 12.44C286.751 13 286.364 13.4733 285.871 13.86C285.391 14.2333 284.817 14.52 284.151 14.72C283.484 14.9067 282.764 15 281.991 15H277.711V0.84ZM280.211 8.42V12.86H282.131C283.104 12.86 283.811 12.6533 284.251 12.24C284.704 11.8133 284.931 11.2667 284.931 10.6C284.931 9.92 284.704 9.38667 284.251 9C283.797 8.61333 283.091 8.42 282.131 8.42H280.211ZM297.555 3H295.555C294.395 3 293.535 3.16667 292.975 3.5C292.415 3.82 292.135 4.33333 292.135 5.04C292.135 5.64 292.409 6.12 292.955 6.48C293.502 6.84 294.369 7.02 295.555 7.02H297.555V3ZM292.655 8.26C291.695 8.1 290.922 7.74667 290.335 7.2C289.762 6.64 289.475 5.88667 289.475 4.94C289.462 3.60667 289.962 2.59333 290.975 1.9C292.002 1.19333 293.449 0.84 295.315 0.84H300.055V15H297.555V9.18H296.155C295.529 9.18 294.955 9.29333 294.435 9.52C293.915 9.74667 293.455 10.0933 293.055 10.56C292.655 11.0267 292.322 11.6333 292.055 12.38C291.802 13.1133 291.622 13.9867 291.515 15H288.795C288.849 14.16 288.989 13.3867 289.215 12.68C289.442 11.96 289.722 11.32 290.055 10.76C290.402 10.1867 290.795 9.69333 291.235 9.28C291.675 8.86667 292.149 8.54 292.655 8.3V8.26ZM310.955 11.14H310.995L314.855 0.84H318.535V15H316.055L316.095 3.94H316.055L311.715 15H310.075L305.775 3.94H305.735L305.775 15H303.375V0.84H306.995L310.955 11.14Z" fill="#949494"/>
    <path d="M0.292892 8.29289C-0.0976334 8.68342 -0.0976334 9.31658 0.292892 9.70711L6.65685 16.0711C7.04738 16.4616 7.68054 16.4616 8.07107 16.0711C8.46159 15.6805 8.46159 15.0474 8.07107 14.6569L2.41422 9L8.07107 3.34314C8.46159 2.95262 8.46159 2.31946 8.07107 1.92893C7.68054 1.53841 7.04738 1.53841 6.65685 1.92893L0.292892 8.29289ZM64 8L1 8L1 10L64 10L64 8Z" fill="#949494"/>
</svg>
