<svg width="279" height="27" viewBox="0 0 279 27" fill="none" xmlns="http://www.w3.org/2000/svg">
    <path d="M17.23 0.76V22H13.48V4H4.24V22H0.49V0.76H17.23ZM43.799 11.32C43.799 12.98 43.509 14.5 42.929 15.88C42.369 17.24 41.579 18.42 40.559 19.42C39.559 20.42 38.359 21.2 36.959 21.76C35.579 22.3 34.079 22.57 32.459 22.57C30.839 22.57 29.339 22.3 27.959 21.76C26.579 21.2 25.379 20.42 24.359 19.42C23.339 18.42 22.539 17.24 21.959 15.88C21.399 14.5 21.119 12.98 21.119 11.32C21.119 9.66 21.399 8.15 21.959 6.79C22.539 5.41 23.339 4.24 24.359 3.28C25.379 2.3 26.579 1.54 27.959 0.999999C29.339 0.459998 30.839 0.189998 32.459 0.189998C34.079 0.189998 35.579 0.459998 36.959 0.999999C38.359 1.54 39.559 2.3 40.559 3.28C41.579 4.24 42.369 5.41 42.929 6.79C43.509 8.15 43.799 9.66 43.799 11.32ZM39.779 11.32C39.779 10.26 39.609 9.26 39.269 8.32C38.929 7.38 38.439 6.56 37.799 5.86C37.159 5.16 36.389 4.61 35.489 4.21C34.589 3.79 33.579 3.58 32.459 3.58C31.339 3.58 30.329 3.79 29.429 4.21C28.529 4.61 27.759 5.16 27.119 5.86C26.479 6.56 25.989 7.38 25.649 8.32C25.309 9.26 25.139 10.26 25.139 11.32C25.139 12.4 25.309 13.42 25.649 14.38C26.009 15.34 26.499 16.17 27.119 16.87C27.759 17.57 28.529 18.13 29.429 18.55C30.329 18.95 31.339 19.15 32.459 19.15C33.559 19.15 34.559 18.95 35.459 18.55C36.379 18.13 37.149 17.57 37.769 16.87C38.409 16.17 38.899 15.34 39.239 14.38C39.599 13.42 39.779 12.4 39.779 11.32ZM48.4066 22V26.17H45.1366V18.76H48.3466L55.1266 0.76H58.7866L65.5066 18.76H68.7766V26.17H65.5066V22H48.4066ZM52.1866 18.76H61.5466L56.8666 4.96L52.1866 18.76ZM71.1834 0.76H78.1434C79.2634 0.76 80.3034 0.88 81.2634 1.12C82.2234 1.34 83.0434 1.7 83.7234 2.2C84.4234 2.7 84.9634 3.34 85.3434 4.12C85.7434 4.88 85.9434 5.81 85.9434 6.91C85.9434 8.01 85.7334 8.96 85.3134 9.76C84.9134 10.54 84.3534 11.18 83.6334 11.68C82.9334 12.18 82.1034 12.55 81.1434 12.79C80.1834 13.01 79.1534 13.12 78.0534 13.12H74.9334V22H71.1834V0.76ZM74.9334 10.09H77.7834C78.4234 10.09 79.0134 10.03 79.5534 9.91C80.0934 9.79 80.5534 9.6 80.9334 9.34C81.3334 9.08 81.6334 8.75 81.8334 8.35C82.0534 7.95 82.1634 7.47 82.1634 6.91C82.1634 6.33 82.0534 5.85 81.8334 5.47C81.6134 5.07 81.3134 4.75 80.9334 4.51C80.5534 4.27 80.0934 4.1 79.5534 4C79.0334 3.9 78.4634 3.85 77.8434 3.85H74.9334V10.09ZM111.153 11.32C111.153 12.98 110.863 14.5 110.283 15.88C109.723 17.24 108.933 18.42 107.913 19.42C106.913 20.42 105.713 21.2 104.313 21.76C102.933 22.3 101.433 22.57 99.8125 22.57C98.1925 22.57 96.6925 22.3 95.3125 21.76C93.9325 21.2 92.7325 20.42 91.7125 19.42C90.6925 18.42 89.8925 17.24 89.3125 15.88C88.7525 14.5 88.4725 12.98 88.4725 11.32C88.4725 9.66 88.7525 8.15 89.3125 6.79C89.8925 5.41 90.6925 4.24 91.7125 3.28C92.7325 2.3 93.9325 1.54 95.3125 0.999999C96.6925 0.459998 98.1925 0.189998 99.8125 0.189998C101.433 0.189998 102.933 0.459998 104.313 0.999999C105.713 1.54 106.913 2.3 107.913 3.28C108.933 4.24 109.723 5.41 110.283 6.79C110.863 8.15 111.153 9.66 111.153 11.32ZM107.133 11.32C107.133 10.26 106.963 9.26 106.623 8.32C106.283 7.38 105.793 6.56 105.153 5.86C104.513 5.16 103.743 4.61 102.843 4.21C101.943 3.79 100.933 3.58 99.8125 3.58C98.6925 3.58 97.6825 3.79 96.7825 4.21C95.8825 4.61 95.1125 5.16 94.4725 5.86C93.8325 6.56 93.3425 7.38 93.0025 8.32C92.6625 9.26 92.4925 10.26 92.4925 11.32C92.4925 12.4 92.6625 13.42 93.0025 14.38C93.3625 15.34 93.8525 16.17 94.4725 16.87C95.1125 17.57 95.8825 18.13 96.7825 18.55C97.6825 18.95 98.6925 19.15 99.8125 19.15C100.913 19.15 101.913 18.95 102.813 18.55C103.733 18.13 104.503 17.57 105.123 16.87C105.763 16.17 106.253 15.34 106.593 14.38C106.953 13.42 107.133 12.4 107.133 11.32ZM122 18.76C123.3 18.76 124.36 18.5 125.18 17.98C126 17.44 126.41 16.63 126.41 15.55C126.41 15.01 126.3 14.54 126.08 14.14C125.86 13.74 125.55 13.42 125.15 13.18C124.77 12.92 124.31 12.73 123.77 12.61C123.25 12.49 122.68 12.43 122.06 12.43H118.82V18.76H122ZM115.07 22V0.76H128.81V4H118.82V9.19H122.36C123.48 9.19 124.52 9.32 125.48 9.58C126.44 9.82 127.26 10.21 127.94 10.75C128.64 11.27 129.18 11.93 129.56 12.73C129.96 13.53 130.16 14.47 130.16 15.55C130.16 16.65 129.95 17.61 129.53 18.43C129.13 19.23 128.57 19.9 127.85 20.44C127.15 20.96 126.32 21.35 125.36 21.61C124.4 21.87 123.37 22 122.27 22H115.07ZM134.347 0.76H138.097V9.34H147.907V0.76H151.657V22H147.907V12.58H138.097V22H134.347V0.76ZM160.302 18.76H170.862V22H156.642V0.76H170.412V4H160.302V9.52H169.782V12.61H160.302V18.76ZM178.291 18.76H188.851V22H174.631V0.76H188.401V4H178.291V9.52H187.771V12.61H178.291V18.76Z" fill="#55A0FF"/>
    <path d="M278.061 14.0607C278.646 13.4749 278.646 12.5251 278.061 11.9393L268.515 2.3934C267.929 1.80761 266.979 1.80761 266.393 2.3934C265.808 2.97919 265.808 3.92893 266.393 4.51472L274.879 13L266.393 21.4853C265.808 22.0711 265.808 23.0208 266.393 23.6066C266.979 24.1924 267.929 24.1924 268.515 23.6066L278.061 14.0607ZM214 14.5H277V11.5H214V14.5Z" fill="#55A0FF"/>
</svg>
