<svg width="350" height="58" viewBox="0 0 350 58" fill="none" xmlns="http://www.w3.org/2000/svg">
    <rect width="350" height="58" fill="#FFF289"/>
    <path d="M125.144 20.84V35H122.644V23H116.484V35H113.984V20.84H125.144ZM138.317 30.14C138.317 30.9 138.177 31.6 137.897 32.24C137.63 32.8667 137.257 33.4067 136.777 33.86C136.31 34.3133 135.75 34.6667 135.097 34.92C134.457 35.16 133.764 35.28 133.017 35.28C132.27 35.28 131.577 35.16 130.937 34.92C130.297 34.6667 129.737 34.3133 129.257 33.86C128.79 33.4067 128.417 32.8667 128.137 32.24C127.87 31.6 127.737 30.9 127.737 30.14C127.737 29.38 127.87 28.6867 128.137 28.06C128.417 27.4333 128.79 26.9 129.257 26.46C129.737 26.0067 130.297 25.66 130.937 25.42C131.577 25.1667 132.27 25.04 133.017 25.04C133.764 25.04 134.457 25.1667 135.097 25.42C135.75 25.66 136.31 26.0067 136.777 26.46C137.257 26.9 137.63 27.4333 137.897 28.06C138.177 28.6867 138.317 29.38 138.317 30.14ZM135.937 30.14C135.937 29.7267 135.87 29.3333 135.737 28.96C135.604 28.5733 135.41 28.24 135.157 27.96C134.917 27.6667 134.61 27.44 134.237 27.28C133.877 27.1067 133.47 27.02 133.017 27.02C132.564 27.02 132.157 27.1067 131.797 27.28C131.437 27.44 131.13 27.6667 130.877 27.96C130.637 28.24 130.45 28.5733 130.317 28.96C130.184 29.3333 130.117 29.7267 130.117 30.14C130.117 30.5533 130.184 30.9533 130.317 31.34C130.45 31.7133 130.637 32.0467 130.877 32.34C131.13 32.62 131.437 32.8467 131.797 33.02C132.157 33.18 132.564 33.26 133.017 33.26C133.47 33.26 133.877 33.18 134.237 33.02C134.61 32.8467 134.917 32.62 135.157 32.34C135.41 32.0467 135.604 31.7133 135.737 31.34C135.87 30.9533 135.937 30.5533 135.937 30.14ZM141.378 37.78H139.318V33.08H140.878L143.978 25.32H146.698L149.578 33.08H151.238V37.78H149.178V35H141.378V37.78ZM144.918 28.8L143.358 33.08H147.178L145.438 28.04L144.918 28.8ZM155.15 35H152.75V25.32H161.65V35H159.25V27.22H155.15V35ZM172.025 28.38L167.025 35H164.605V25.32H167.025V31.78L172.025 25.32H174.445V35H172.025V28.38ZM184.238 28.04C184.038 27.7333 183.751 27.4933 183.378 27.32C183.005 27.1333 182.611 27.04 182.198 27.04C181.758 27.04 181.358 27.12 180.998 27.28C180.651 27.44 180.351 27.66 180.098 27.94C179.858 28.22 179.665 28.5533 179.518 28.94C179.385 29.3133 179.318 29.72 179.318 30.16C179.318 30.5867 179.385 30.9933 179.518 31.38C179.651 31.7533 179.845 32.08 180.098 32.36C180.351 32.64 180.658 32.86 181.018 33.02C181.378 33.18 181.778 33.26 182.218 33.26C182.671 33.26 183.078 33.1733 183.438 33C183.811 32.8267 184.111 32.5933 184.338 32.3L185.798 33.84C185.385 34.28 184.865 34.6333 184.238 34.9C183.625 35.1533 182.931 35.28 182.158 35.28C181.385 35.28 180.671 35.16 180.018 34.92C179.378 34.6667 178.818 34.32 178.338 33.88C177.871 33.4267 177.505 32.8867 177.238 32.26C176.985 31.6333 176.858 30.9333 176.858 30.16C176.858 29.4 176.991 28.7067 177.258 28.08C177.525 27.4533 177.891 26.9133 178.358 26.46C178.825 26.0067 179.385 25.66 180.038 25.42C180.691 25.1667 181.398 25.04 182.158 25.04C182.838 25.04 183.505 25.1667 184.158 25.42C184.825 25.6733 185.358 26.0333 185.758 26.5L184.238 28.04ZM193.317 28.76C193.317 28.12 193.124 27.6467 192.737 27.34C192.35 27.0333 191.837 26.88 191.197 26.88C190.69 26.88 190.204 26.98 189.737 27.18C189.284 27.38 188.897 27.6333 188.577 27.94L187.337 26.56C187.83 26.0933 188.43 25.7267 189.137 25.46C189.857 25.18 190.617 25.04 191.417 25.04C192.684 25.04 193.67 25.34 194.377 25.94C195.084 26.54 195.47 27.48 195.537 28.76C195.55 28.9467 195.557 29.1333 195.557 29.32C195.57 29.5067 195.577 29.7 195.577 29.9V32.96C195.577 33.3067 195.584 33.66 195.597 34.02C195.61 34.3667 195.63 34.6933 195.657 35H193.457C193.444 34.8 193.43 34.5933 193.417 34.38C193.404 34.1667 193.397 33.9467 193.397 33.72H193.357C193.01 34.2267 192.577 34.6067 192.057 34.86C191.537 35.1133 190.937 35.24 190.257 35.24C189.884 35.24 189.49 35.1867 189.077 35.08C188.677 34.9733 188.31 34.8067 187.977 34.58C187.644 34.34 187.364 34.0333 187.137 33.66C186.924 33.2733 186.817 32.8 186.817 32.24C186.817 31.52 187.004 30.9467 187.377 30.52C187.764 30.0933 188.264 29.7667 188.877 29.54C189.504 29.3133 190.204 29.1667 190.977 29.1C191.75 29.0333 192.53 29 193.317 29V28.76ZM192.957 30.5C192.504 30.5 192.044 30.52 191.577 30.56C191.124 30.6 190.71 30.68 190.337 30.8C189.977 30.9067 189.677 31.0733 189.437 31.3C189.21 31.5133 189.097 31.8 189.097 32.16C189.097 32.4267 189.15 32.6467 189.257 32.82C189.364 32.9933 189.497 33.1333 189.657 33.24C189.83 33.3467 190.024 33.4267 190.237 33.48C190.45 33.52 190.664 33.54 190.877 33.54C191.677 33.54 192.29 33.3 192.717 32.82C193.144 32.3267 193.357 31.72 193.357 31V30.5H192.957ZM197.273 25.32H205.833V27.22H202.693V35H200.293V27.22H197.273V25.32ZM210.013 25.32V28.44H212.273C212.993 28.44 213.606 28.5267 214.113 28.7C214.619 28.86 215.026 29.0867 215.333 29.38C215.653 29.6733 215.879 30.02 216.013 30.42C216.159 30.82 216.233 31.2467 216.233 31.7C216.233 32.1667 216.146 32.6 215.973 33C215.813 33.4 215.566 33.7467 215.233 34.04C214.913 34.3333 214.513 34.5667 214.033 34.74C213.553 34.9133 212.993 35 212.353 35H207.613V25.32H210.013ZM210.013 33.26H211.833C212.433 33.26 212.919 33.1533 213.293 32.94C213.666 32.7133 213.853 32.3 213.853 31.7C213.853 31.4067 213.799 31.16 213.693 30.96C213.586 30.76 213.439 30.6067 213.253 30.5C213.066 30.38 212.846 30.3 212.593 30.26C212.353 30.2067 212.086 30.18 211.793 30.18H210.013V33.26ZM225.273 28.04C225.073 27.7333 224.786 27.4933 224.413 27.32C224.04 27.1333 223.646 27.04 223.233 27.04C222.793 27.04 222.393 27.12 222.033 27.28C221.686 27.44 221.386 27.66 221.133 27.94C220.893 28.22 220.7 28.5533 220.553 28.94C220.42 29.3133 220.353 29.72 220.353 30.16C220.353 30.5867 220.42 30.9933 220.553 31.38C220.686 31.7533 220.88 32.08 221.133 32.36C221.386 32.64 221.693 32.86 222.053 33.02C222.413 33.18 222.813 33.26 223.253 33.26C223.706 33.26 224.113 33.1733 224.473 33C224.846 32.8267 225.146 32.5933 225.373 32.3L226.833 33.84C226.42 34.28 225.9 34.6333 225.273 34.9C224.66 35.1533 223.966 35.28 223.193 35.28C222.42 35.28 221.706 35.16 221.053 34.92C220.413 34.6667 219.853 34.32 219.373 33.88C218.906 33.4267 218.54 32.8867 218.273 32.26C218.02 31.6333 217.893 30.9333 217.893 30.16C217.893 29.4 218.026 28.7067 218.293 28.08C218.56 27.4533 218.926 26.9133 219.393 26.46C219.86 26.0067 220.42 25.66 221.073 25.42C221.726 25.1667 222.433 25.04 223.193 25.04C223.873 25.04 224.54 25.1667 225.193 25.42C225.86 25.6733 226.393 26.0333 226.793 26.5L225.273 28.04ZM232.992 31.54C232.606 31.54 232.252 31.6 231.932 31.72C231.626 31.8267 231.352 32.02 231.112 32.3C230.886 32.5667 230.692 32.92 230.532 33.36C230.386 33.8 230.272 34.3467 230.192 35H227.552C227.739 33.7333 228.099 32.74 228.632 32.02C229.166 31.3 229.772 30.84 230.452 30.64V30.58C229.786 30.5133 229.226 30.2867 228.772 29.9C228.332 29.5133 228.112 28.88 228.112 28C228.112 27.4933 228.219 27.0733 228.432 26.74C228.646 26.3933 228.932 26.1133 229.292 25.9C229.652 25.6867 230.066 25.54 230.532 25.46C231.012 25.3667 231.512 25.32 232.032 25.32H236.492V35H234.092V31.54H232.992ZM230.452 28.5C230.452 28.98 230.639 29.2867 231.012 29.42C231.386 29.5533 231.912 29.62 232.592 29.62H234.092V27.34H232.572C231.852 27.34 231.319 27.4133 230.972 27.56C230.626 27.6933 230.452 28.0067 230.452 28.5Z" fill="black"/>
</svg>
