<svg width="336" height="17" viewBox="0 0 336 17" fill="none" xmlns="http://www.w3.org/2000/svg">
    <path d="M84.66 0.84H89.64C90.1867 0.84 90.74 0.9 91.3 1.02C91.86 1.12667 92.36 1.32 92.8 1.6C93.2533 1.86667 93.62 2.23333 93.9 2.7C94.1933 3.16667 94.34 3.76 94.34 4.48C94.34 5.24 94.12 5.88667 93.68 6.42C93.24 6.95333 92.66 7.32 91.94 7.52V7.56C92.3667 7.62667 92.7667 7.75333 93.14 7.94C93.5133 8.11333 93.8333 8.34667 94.1 8.64C94.38 8.92 94.5933 9.26 94.74 9.66C94.9 10.0467 94.98 10.4867 94.98 10.98C94.98 11.66 94.84 12.2533 94.56 12.76C94.28 13.2667 93.8933 13.6867 93.4 14.02C92.92 14.3533 92.3533 14.6 91.7 14.76C91.06 14.92 90.3733 15 89.64 15H84.66V0.84ZM87.1 6.74H89.42C89.7533 6.74 90.0667 6.70667 90.36 6.64C90.6667 6.56 90.9333 6.44 91.16 6.28C91.3867 6.12 91.5667 5.92 91.7 5.68C91.8333 5.42667 91.9 5.12 91.9 4.76C91.9 4.09333 91.6467 3.61333 91.14 3.32C90.6333 3.02667 89.9733 2.88 89.16 2.88H87.1V6.74ZM87.1 12.94H89.36C89.7467 12.94 90.1267 12.9067 90.5 12.84C90.8733 12.76 91.2 12.64 91.48 12.48C91.7733 12.3067 92.0067 12.08 92.18 11.8C92.3667 11.52 92.46 11.1733 92.46 10.76C92.46 10 92.1933 9.46 91.66 9.14C91.1267 8.80667 90.4 8.64 89.48 8.64H87.1V12.94ZM100.147 12.84H107.187V15H97.7069V0.84H106.887V3H100.147V6.68H106.467V8.74H100.147V12.84ZM109.699 0.84H114.339C115.086 0.84 115.779 0.92 116.419 1.08C117.059 1.22667 117.606 1.46667 118.059 1.8C118.526 2.13333 118.886 2.56 119.139 3.08C119.406 3.58667 119.539 4.20667 119.539 4.94C119.539 5.67333 119.399 6.30667 119.119 6.84C118.852 7.36 118.479 7.78667 117.999 8.12C117.532 8.45333 116.979 8.7 116.339 8.86C115.699 9.00667 115.012 9.08 114.279 9.08H112.199V15H109.699V0.84ZM112.199 7.06H114.099C114.526 7.06 114.919 7.02 115.279 6.94C115.639 6.86 115.946 6.73333 116.199 6.56C116.466 6.38667 116.666 6.16667 116.799 5.9C116.946 5.63333 117.019 5.31333 117.019 4.94C117.019 4.55333 116.946 4.23333 116.799 3.98C116.652 3.71333 116.452 3.5 116.199 3.34C115.946 3.18 115.639 3.06667 115.279 3C114.932 2.93333 114.552 2.9 114.139 2.9H112.199V7.06ZM121.945 0.84H124.445V6.56H130.985V0.84H133.485V15H130.985V8.72H124.445V15H121.945V0.84ZM138.148 0.84L141.848 8.92L145.428 0.84H148.168L143.068 11.92C142.842 12.4133 142.595 12.8667 142.328 13.28C142.062 13.6933 141.748 14.0533 141.388 14.36C141.028 14.6533 140.615 14.8867 140.148 15.06C139.695 15.2333 139.168 15.32 138.568 15.32C138.142 15.32 137.775 15.2867 137.468 15.22C137.175 15.1667 136.922 15.0933 136.708 15C136.508 14.9067 136.335 14.8067 136.188 14.7C136.042 14.5933 135.915 14.4933 135.808 14.4L137.268 12.56C137.415 12.6933 137.608 12.8333 137.848 12.98C138.102 13.1267 138.402 13.2 138.748 13.2C139.122 13.2 139.448 13.0867 139.728 12.86C140.008 12.62 140.275 12.2733 140.528 11.82L135.368 0.84H138.148ZM155.176 15H152.656V3H148.316V0.84H159.516V3H155.176V15ZM161.34 0.84H163.84V6.28H165.68C166.453 6.28 167.166 6.36667 167.82 6.54C168.486 6.7 169.06 6.96 169.54 7.32C170.02 7.66667 170.393 8.10667 170.66 8.64C170.94 9.16 171.08 9.78 171.08 10.5C171.08 11.2333 170.94 11.88 170.66 12.44C170.38 13 169.993 13.4733 169.5 13.86C169.02 14.2333 168.446 14.52 167.78 14.72C167.113 14.9067 166.393 15 165.62 15H161.34V0.84ZM163.84 8.42V12.86H165.76C166.733 12.86 167.44 12.6533 167.88 12.24C168.333 11.8133 168.56 11.2667 168.56 10.6C168.56 9.92 168.333 9.38667 167.88 9C167.426 8.61333 166.72 8.42 165.76 8.42H163.84ZM185.844 12.9C185.284 13.62 184.551 14.2133 183.644 14.68C182.751 15.1467 181.684 15.38 180.444 15.38C179.364 15.38 178.364 15.2 177.444 14.84C176.524 14.4667 175.731 13.9533 175.064 13.3C174.398 12.6333 173.871 11.84 173.484 10.92C173.111 10 172.924 8.99333 172.924 7.9C172.924 6.79333 173.118 5.78667 173.504 4.88C173.891 3.96 174.418 3.17333 175.084 2.52C175.764 1.86667 176.564 1.36 177.484 0.999999C178.404 0.639999 179.398 0.459999 180.464 0.459999C181.491 0.459999 182.471 0.653332 183.404 1.04C184.351 1.41333 185.098 1.94 185.644 2.62L183.844 4.28C183.538 3.82667 183.091 3.45333 182.504 3.16C181.918 2.86667 181.264 2.72 180.544 2.72C179.798 2.72 179.124 2.86 178.524 3.14C177.924 3.40667 177.411 3.77333 176.984 4.24C176.558 4.70667 176.224 5.25333 175.984 5.88C175.758 6.50667 175.644 7.18 175.644 7.9C175.644 8.63333 175.758 9.32 175.984 9.96C176.224 10.5867 176.551 11.1333 176.964 11.6C177.391 12.0667 177.904 12.4333 178.504 12.7C179.104 12.9667 179.778 13.1 180.524 13.1C181.258 13.1 181.931 12.9533 182.544 12.66C183.158 12.3533 183.658 11.92 184.044 11.36L185.844 12.9ZM195.325 3H193.325C192.165 3 191.305 3.16667 190.745 3.5C190.185 3.82 189.905 4.33333 189.905 5.04C189.905 5.64 190.178 6.12 190.725 6.48C191.272 6.84 192.138 7.02 193.325 7.02H195.325V3ZM190.425 8.26C189.465 8.1 188.692 7.74667 188.105 7.2C187.532 6.64 187.245 5.88667 187.245 4.94C187.232 3.60667 187.732 2.59333 188.745 1.9C189.772 1.19333 191.218 0.84 193.085 0.84H197.825V15H195.325V9.18H193.925C193.298 9.18 192.725 9.29333 192.205 9.52C191.685 9.74667 191.225 10.0933 190.825 10.56C190.425 11.0267 190.092 11.6333 189.825 12.38C189.572 13.1133 189.392 13.9867 189.285 15H186.565C186.618 14.16 186.758 13.3867 186.985 12.68C187.212 11.96 187.492 11.32 187.825 10.76C188.172 10.1867 188.565 9.69333 189.005 9.28C189.445 8.86667 189.918 8.54 190.425 8.3V8.26ZM206.144 15V0.84H208.644V6.38C208.911 6.38 209.171 6.39333 209.424 6.42C209.678 6.43333 209.931 6.45333 210.184 6.48L214.984 0.84H217.724L212.664 7.06C214.091 7.62 215.231 8.54 216.084 9.82C216.951 11.1 217.571 12.8267 217.944 15H215.204C214.991 13.8667 214.711 12.8867 214.364 12.06C214.031 11.2333 213.604 10.5533 213.084 10.02C212.564 9.48667 211.938 9.1 211.204 8.86C210.471 8.62 209.618 8.51333 208.644 8.54V15H206.144ZM236.367 0.84V15H233.867V3H227.707V15H225.207V0.84H236.367ZM239.68 0.84H244.32C245.066 0.84 245.76 0.92 246.4 1.08C247.04 1.22667 247.586 1.46667 248.04 1.8C248.506 2.13333 248.866 2.56 249.12 3.08C249.386 3.58667 249.52 4.20667 249.52 4.94C249.52 5.67333 249.38 6.30667 249.1 6.84C248.833 7.36 248.46 7.78667 247.98 8.12C247.513 8.45333 246.96 8.7 246.32 8.86C245.68 9.00667 244.993 9.08 244.26 9.08H242.18V15H239.68V0.84ZM242.18 7.06H244.08C244.506 7.06 244.9 7.02 245.26 6.94C245.62 6.86 245.926 6.73333 246.18 6.56C246.446 6.38667 246.646 6.16667 246.78 5.9C246.926 5.63333 247 5.31333 247 4.94C247 4.55333 246.926 4.23333 246.78 3.98C246.633 3.71333 246.433 3.5 246.18 3.34C245.926 3.18 245.62 3.06667 245.26 3C244.913 2.93333 244.533 2.9 244.12 2.9H242.18V7.06ZM266.326 7.88C266.326 8.98667 266.132 10 265.746 10.92C265.372 11.8267 264.846 12.6133 264.166 13.28C263.499 13.9467 262.699 14.4667 261.766 14.84C260.846 15.2 259.846 15.38 258.766 15.38C257.686 15.38 256.686 15.2 255.766 14.84C254.846 14.4667 254.046 13.9467 253.366 13.28C252.686 12.6133 252.152 11.8267 251.766 10.92C251.392 10 251.206 8.98667 251.206 7.88C251.206 6.77333 251.392 5.76667 251.766 4.86C252.152 3.94 252.686 3.16 253.366 2.52C254.046 1.86667 254.846 1.36 255.766 0.999999C256.686 0.639999 257.686 0.459999 258.766 0.459999C259.846 0.459999 260.846 0.639999 261.766 0.999999C262.699 1.36 263.499 1.86667 264.166 2.52C264.846 3.16 265.372 3.94 265.746 4.86C266.132 5.76667 266.326 6.77333 266.326 7.88ZM263.646 7.88C263.646 7.17333 263.532 6.50667 263.306 5.88C263.079 5.25333 262.752 4.70667 262.326 4.24C261.899 3.77333 261.386 3.40667 260.786 3.14C260.186 2.86 259.512 2.72 258.766 2.72C258.019 2.72 257.346 2.86 256.746 3.14C256.146 3.40667 255.632 3.77333 255.206 4.24C254.779 4.70667 254.452 5.25333 254.226 5.88C253.999 6.50667 253.886 7.17333 253.886 7.88C253.886 8.6 253.999 9.28 254.226 9.92C254.466 10.56 254.792 11.1133 255.206 11.58C255.632 12.0467 256.146 12.42 256.746 12.7C257.346 12.9667 258.019 13.1 258.766 13.1C259.499 13.1 260.166 12.9667 260.766 12.7C261.379 12.42 261.892 12.0467 262.306 11.58C262.732 11.1133 263.059 10.56 263.286 9.92C263.526 9.28 263.646 8.6 263.646 7.88ZM271.377 12.84H278.417V15H268.937V0.84H278.117V3H271.377V6.68H277.697V8.74H271.377V12.84ZM280.93 15V0.84H283.43V6.38C283.696 6.38 283.956 6.39333 284.21 6.42C284.463 6.43333 284.716 6.45333 284.97 6.48L289.77 0.84H292.51L287.45 7.06C288.876 7.62 290.016 8.54 290.87 9.82C291.736 11.1 292.356 12.8267 292.73 15H289.99C289.776 13.8667 289.496 12.8867 289.15 12.06C288.816 11.2333 288.39 10.5533 287.87 10.02C287.35 9.48667 286.723 9.1 285.99 8.86C285.256 8.62 284.403 8.51333 283.43 8.54V15H280.93ZM300.352 15H297.832V3H293.492V0.84H304.692V3H300.352V15ZM307.535 15H304.795L310.815 0.84H313.255L319.235 15H316.435L315.135 11.78H308.795L307.535 15ZM309.575 9.7H314.375L311.995 3.62L309.575 9.7ZM328.412 11.14H328.452L332.312 0.84H335.992V15H333.512L333.552 3.94H333.512L329.172 15H327.532L323.232 3.94H323.192L323.232 15H320.832V0.84H324.452L328.412 11.14Z" fill="#949494"/>
    <path d="M0.292892 8.29289C-0.0976334 8.68342 -0.0976334 9.31658 0.292892 9.70711L6.65685 16.0711C7.04738 16.4616 7.68054 16.4616 8.07107 16.0711C8.46159 15.6805 8.46159 15.0474 8.07107 14.6569L2.41422 9L8.07107 3.34314C8.46159 2.95262 8.46159 2.31946 8.07107 1.92893C7.68054 1.53841 7.04738 1.53841 6.65685 1.92893L0.292892 8.29289ZM64 8L1 8L1 10L64 10L64 8Z" fill="#949494"/>
</svg>
