<svg width="393" height="43" viewBox="0 0 393 43" fill="none" xmlns="http://www.w3.org/2000/svg">
    <rect width="393" height="43" fill="#55A0FF"/>
    <path d="M43.82 13.84V28H41.32V16H35.16V28H32.66V13.84H43.82ZM61.5327 20.88C61.5327 21.9867 61.3393 23 60.9527 23.92C60.5793 24.8267 60.0527 25.6133 59.3727 26.28C58.706 26.9467 57.906 27.4667 56.9727 27.84C56.0527 28.2 55.0527 28.38 53.9727 28.38C52.8927 28.38 51.8927 28.2 50.9727 27.84C50.0527 27.4667 49.2527 26.9467 48.5727 26.28C47.8927 25.6133 47.3593 24.8267 46.9727 23.92C46.5993 23 46.4127 21.9867 46.4127 20.88C46.4127 19.7733 46.5993 18.7667 46.9727 17.86C47.3593 16.94 47.8927 16.16 48.5727 15.52C49.2527 14.8667 50.0527 14.36 50.9727 14C51.8927 13.64 52.8927 13.46 53.9727 13.46C55.0527 13.46 56.0527 13.64 56.9727 14C57.906 14.36 58.706 14.8667 59.3727 15.52C60.0527 16.16 60.5793 16.94 60.9527 17.86C61.3393 18.7667 61.5327 19.7733 61.5327 20.88ZM58.8527 20.88C58.8527 20.1733 58.7393 19.5067 58.5127 18.88C58.286 18.2533 57.9593 17.7067 57.5327 17.24C57.106 16.7733 56.5927 16.4067 55.9927 16.14C55.3927 15.86 54.7193 15.72 53.9727 15.72C53.226 15.72 52.5527 15.86 51.9527 16.14C51.3527 16.4067 50.8393 16.7733 50.4127 17.24C49.986 17.7067 49.6593 18.2533 49.4327 18.88C49.206 19.5067 49.0927 20.1733 49.0927 20.88C49.0927 21.6 49.206 22.28 49.4327 22.92C49.6727 23.56 49.9993 24.1133 50.4127 24.58C50.8393 25.0467 51.3527 25.42 51.9527 25.7C52.5527 25.9667 53.226 26.1 53.9727 26.1C54.706 26.1 55.3727 25.9667 55.9727 25.7C56.586 25.42 57.0993 25.0467 57.5127 24.58C57.9393 24.1133 58.266 23.56 58.4927 22.92C58.7327 22.28 58.8527 21.6 58.8527 20.88ZM64.6044 28V30.78H62.4244V25.84H64.5644L69.0844 13.84H71.5244L76.0044 25.84H78.1844V30.78H76.0044V28H64.6044ZM67.1244 25.84H73.3644L70.2444 16.64L67.1244 25.84ZM79.7889 13.84H84.4289C85.1756 13.84 85.8689 13.92 86.5089 14.08C87.1489 14.2267 87.6956 14.4667 88.1489 14.8C88.6156 15.1333 88.9756 15.56 89.2289 16.08C89.4956 16.5867 89.6289 17.2067 89.6289 17.94C89.6289 18.6733 89.4889 19.3067 89.2089 19.84C88.9422 20.36 88.5689 20.7867 88.0889 21.12C87.6222 21.4533 87.0689 21.7 86.4289 21.86C85.7889 22.0067 85.1022 22.08 84.3689 22.08H82.2889V28H79.7889V13.84ZM82.2889 20.06H84.1889C84.6156 20.06 85.0089 20.02 85.3689 19.94C85.7289 19.86 86.0356 19.7333 86.2889 19.56C86.5556 19.3867 86.7556 19.1667 86.8889 18.9C87.0356 18.6333 87.1089 18.3133 87.1089 17.94C87.1089 17.5533 87.0356 17.2333 86.8889 16.98C86.7422 16.7133 86.5422 16.5 86.2889 16.34C86.0356 16.18 85.7289 16.0667 85.3689 16C85.0222 15.9333 84.6422 15.9 84.2289 15.9H82.2889V20.06ZM106.435 20.88C106.435 21.9867 106.242 23 105.855 23.92C105.482 24.8267 104.955 25.6133 104.275 26.28C103.608 26.9467 102.808 27.4667 101.875 27.84C100.955 28.2 99.955 28.38 98.875 28.38C97.795 28.38 96.795 28.2 95.875 27.84C94.955 27.4667 94.155 26.9467 93.475 26.28C92.795 25.6133 92.2617 24.8267 91.875 23.92C91.5017 23 91.315 21.9867 91.315 20.88C91.315 19.7733 91.5017 18.7667 91.875 17.86C92.2617 16.94 92.795 16.16 93.475 15.52C94.155 14.8667 94.955 14.36 95.875 14C96.795 13.64 97.795 13.46 98.875 13.46C99.955 13.46 100.955 13.64 101.875 14C102.808 14.36 103.608 14.8667 104.275 15.52C104.955 16.16 105.482 16.94 105.855 17.86C106.242 18.7667 106.435 19.7733 106.435 20.88ZM103.755 20.88C103.755 20.1733 103.642 19.5067 103.415 18.88C103.188 18.2533 102.862 17.7067 102.435 17.24C102.008 16.7733 101.495 16.4067 100.895 16.14C100.295 15.86 99.6217 15.72 98.875 15.72C98.1283 15.72 97.455 15.86 96.855 16.14C96.255 16.4067 95.7417 16.7733 95.315 17.24C94.8883 17.7067 94.5617 18.2533 94.335 18.88C94.1083 19.5067 93.995 20.1733 93.995 20.88C93.995 21.6 94.1083 22.28 94.335 22.92C94.575 23.56 94.9017 24.1133 95.315 24.58C95.7417 25.0467 96.255 25.42 96.855 25.7C97.455 25.9667 98.1283 26.1 98.875 26.1C99.6083 26.1 100.275 25.9667 100.875 25.7C101.488 25.42 102.002 25.0467 102.415 24.58C102.842 24.1133 103.168 23.56 103.395 22.92C103.635 22.28 103.755 21.6 103.755 20.88ZM113.667 25.84C114.533 25.84 115.24 25.6667 115.787 25.32C116.333 24.96 116.607 24.42 116.607 23.7C116.607 23.34 116.533 23.0267 116.387 22.76C116.24 22.4933 116.033 22.28 115.767 22.12C115.513 21.9467 115.207 21.82 114.847 21.74C114.5 21.66 114.12 21.62 113.707 21.62H111.547V25.84H113.667ZM109.047 28V13.84H118.207V16H111.547V19.46H113.907C114.653 19.46 115.347 19.5467 115.987 19.72C116.627 19.88 117.173 20.14 117.627 20.5C118.093 20.8467 118.453 21.2867 118.707 21.82C118.973 22.3533 119.107 22.98 119.107 23.7C119.107 24.4333 118.967 25.0733 118.687 25.62C118.42 26.1533 118.047 26.6 117.567 26.96C117.1 27.3067 116.547 27.5667 115.907 27.74C115.267 27.9133 114.58 28 113.847 28H109.047ZM121.898 13.84H124.398V19.56H130.938V13.84H133.438V28H130.938V21.72H124.398V28H121.898V13.84ZM139.202 25.84H146.242V28H136.762V13.84H145.942V16H139.202V19.68H145.522V21.74H139.202V25.84ZM151.194 25.84H158.234V28H148.754V13.84H157.934V16H151.194V19.68H157.514V21.74H151.194V25.84Z" fill="white"/>
    <path d="M381.707 21.7071C382.098 21.3166 382.098 20.6834 381.707 20.2929L375.343 13.9289C374.953 13.5384 374.319 13.5384 373.929 13.9289C373.538 14.3195 373.538 14.9526 373.929 15.3431L379.586 21L373.929 26.6569C373.538 27.0474 373.538 27.6805 373.929 28.0711C374.319 28.4616 374.953 28.4616 375.343 28.0711L381.707 21.7071ZM347 22L381 22V20L347 20V22Z" fill="white"/>
</svg>
