<svg width="1088" height="136" viewBox="0 0 1088 136" fill="none" xmlns="http://www.w3.org/2000/svg">
    <path d="M85.15 3.8H86.15V2.8H85.15V3.8ZM85.15 110V111H86.15V110H85.15ZM66.4 110H65.4V111H66.4V110ZM66.4 20H67.4V19H66.4V20ZM20.2 20V19H19.2V20H20.2ZM20.2 110V111H21.2V110H20.2ZM1.45 110H0.450001V111H1.45V110ZM1.45 3.8V2.8H0.450001V3.8H1.45ZM84.15 3.8V110H86.15V3.8H84.15ZM85.15 109H66.4V111H85.15V109ZM67.4 110V20H65.4V110H67.4ZM66.4 19H20.2V21H66.4V19ZM19.2 20V110H21.2V20H19.2ZM20.2 109H1.45V111H20.2V109ZM2.45 110V3.8H0.450001V110H2.45ZM1.45 4.8H85.15V2.8H1.45V4.8ZM109.995 3.8V2.8H108.995V3.8H109.995ZM160.395 5.59999L160.152 6.57014L160.162 6.57253L160.172 6.57473L160.395 5.59999ZM172.695 11L172.102 11.8057L172.114 11.8137L172.695 11ZM180.795 20.6L179.896 21.038L179.903 21.052L179.91 21.0657L180.795 20.6ZM180.645 48.8L179.759 48.3351L179.755 48.3437L180.645 48.8ZM172.245 58.4L171.674 57.5786L171.664 57.5863L172.245 58.4ZM159.795 63.95L160.018 64.9247L160.028 64.9225L160.037 64.9201L159.795 63.95ZM128.745 65.6V64.6H127.745V65.6H128.745ZM128.745 110V111H129.745V110H128.745ZM109.995 110H108.995V111H109.995V110ZM128.745 50.45H127.745V51.45H128.745V50.45ZM151.845 49.55L151.628 48.5738L151.845 49.55ZM158.745 46.7L158.2 45.8616L158.19 45.868L158.18 45.8747L158.745 46.7ZM163.245 41.75L162.369 41.2681L162.359 41.2853L162.35 41.3028L163.245 41.75ZM163.245 27.35L162.369 27.8319L162.374 27.8415L162.38 27.851L163.245 27.35ZM158.745 22.55L158.211 23.3955L158.745 22.55ZM151.845 20L151.656 20.982L151.663 20.9833L151.845 20ZM128.745 19.25V18.25H127.745V19.25H128.745ZM109.995 4.8H144.795V2.8H109.995V4.8ZM144.795 4.8C150.324 4.8 155.441 5.39237 160.152 6.57014L160.637 4.62985C155.749 3.40762 150.466 2.8 144.795 2.8V4.8ZM160.172 6.57473C164.86 7.64923 168.83 9.39902 172.103 11.8056L173.287 10.1943C169.76 7.60097 165.53 5.75076 160.618 4.62526L160.172 6.57473ZM172.114 11.8137C175.477 14.216 178.068 17.2864 179.896 21.038L181.694 20.162C179.722 16.1136 176.913 12.784 173.276 10.1863L172.114 11.8137ZM179.91 21.0657C181.816 24.6875 182.795 29.168 182.795 34.55H184.795C184.795 28.932 183.774 24.1125 181.68 20.1343L179.91 21.0657ZM182.795 34.55C182.795 39.9229 181.77 44.5065 179.76 48.3352L181.53 49.2648C183.72 45.0935 184.795 40.1771 184.795 34.55H182.795ZM179.755 48.3437C177.83 52.0976 175.14 55.1723 171.675 57.5786L172.815 59.2214C176.55 56.6277 179.46 53.3024 181.535 49.2563L179.755 48.3437ZM171.664 57.5863C168.28 60.0032 164.249 61.8058 159.552 62.9799L160.037 64.9201C164.941 63.6942 169.21 61.7968 172.826 59.2137L171.664 57.5863ZM159.572 62.9753C154.853 64.0567 149.778 64.6 144.345 64.6V66.6C149.911 66.6 155.137 66.0433 160.018 64.9247L159.572 62.9753ZM144.345 64.6H128.745V66.6H144.345V64.6ZM127.745 65.6V110H129.745V65.6H127.745ZM128.745 109H109.995V111H128.745V109ZM110.995 110V3.8H108.995V110H110.995ZM128.745 51.45H142.995V49.45H128.745V51.45ZM142.995 51.45C146.257 51.45 149.281 51.1442 152.062 50.5262L151.628 48.5738C149.009 49.1557 146.133 49.45 142.995 49.45V51.45ZM152.062 50.5262C154.862 49.904 157.285 48.9102 159.31 47.5253L158.18 45.8747C156.404 47.0898 154.228 47.996 151.628 48.5738L152.062 50.5262ZM159.29 47.5384C161.429 46.1482 163.054 44.3671 164.139 42.1972L162.35 41.3028C161.435 43.1329 160.061 44.6518 158.2 45.8616L159.29 47.5384ZM164.121 42.2319C165.319 40.0543 165.895 37.4807 165.895 34.55H163.895C163.895 37.2193 163.371 39.4457 162.369 41.2681L164.121 42.2319ZM165.895 34.55C165.895 31.5288 165.322 28.9425 164.11 26.849L162.38 27.851C163.367 29.5575 163.895 31.7712 163.895 34.55H165.895ZM164.121 26.8681C162.941 24.7223 161.324 22.9963 159.279 21.7045L158.211 23.3955C159.966 24.5037 161.349 25.9777 162.369 27.8319L164.121 26.8681ZM159.279 21.7045C157.25 20.4234 154.825 19.5349 152.027 19.0167L151.663 20.9833C154.265 21.4651 156.439 22.2766 158.211 23.3955L159.279 21.7045ZM152.034 19.018C149.362 18.5042 146.448 18.25 143.295 18.25V20.25C146.342 20.25 149.128 20.4958 151.656 20.982L152.034 19.018ZM143.295 18.25H128.745V20.25H143.295V18.25ZM127.745 19.25V50.45H129.745V19.25H127.745ZM220.141 93.8H219.141V94.8H220.141V93.8ZM272.941 93.8H273.941V92.8H272.941V93.8ZM272.941 110V111H273.941V110H272.941ZM201.841 110H200.841V111H201.841V110ZM201.841 3.8V2.8H200.841V3.8H201.841ZM270.691 3.8H271.691V2.8H270.691V3.8ZM270.691 20V21H271.691V20H270.691ZM220.141 20V19H219.141V20H220.141ZM220.141 47.6H219.141V48.6H220.141V47.6ZM267.541 47.6H268.541V46.6H267.541V47.6ZM267.541 63.05V64.05H268.541V63.05H267.541ZM220.141 63.05V62.05H219.141V63.05H220.141ZM220.141 94.8H272.941V92.8H220.141V94.8ZM271.941 93.8V110H273.941V93.8H271.941ZM272.941 109H201.841V111H272.941V109ZM202.841 110V3.8H200.841V110H202.841ZM201.841 4.8H270.691V2.8H201.841V4.8ZM269.691 3.8V20H271.691V3.8H269.691ZM270.691 19H220.141V21H270.691V19ZM219.141 20V47.6H221.141V20H219.141ZM220.141 48.6H267.541V46.6H220.141V48.6ZM266.541 47.6V63.05H268.541V47.6H266.541ZM267.541 62.05H220.141V64.05H267.541V62.05ZM219.141 63.05V93.8H221.141V63.05H219.141ZM307.532 48.05V47.05H306.532V48.05H307.532ZM334.682 44.15L335.227 44.9884L334.682 44.15ZM335.732 20.9L335.087 21.6643L335.093 21.6692L335.099 21.674L335.732 20.9ZM311.582 20.45L312.194 21.2407L311.582 20.45ZM304.832 30.35L304.44 31.27L305.438 31.6949L305.781 30.6662L304.832 30.35ZM288.632 23.45L287.706 23.0719L287.334 23.9839L288.24 24.37L288.632 23.45ZM302.132 6.95L301.593 6.10747V6.10747L302.132 6.95ZM338.432 3.04999L338.149 4.00901L338.159 4.01199L338.169 4.01476L338.432 3.04999ZM349.832 8.44999L349.232 9.24999L349.238 9.2544L349.244 9.25873L349.832 8.44999ZM357.482 17.6L356.583 18.0375L356.59 18.0522L356.598 18.0667L357.482 17.6ZM358.382 39.2L357.481 38.7662L358.382 39.2ZM353.432 46.25L354.139 46.9571L353.432 46.25ZM346.682 51.2L347.115 52.1015L347.129 52.0946L347.143 52.0872L346.682 51.2ZM339.332 53.9L339.09 52.9299L338.332 53.1192V53.9H339.332ZM339.332 54.2H338.332V55.095L339.222 55.1939L339.332 54.2ZM347.882 56.15L348.198 55.2013L347.882 56.15ZM356.132 60.8L355.489 61.5657L355.498 61.5734L355.507 61.5809L356.132 60.8ZM362.282 68.6L361.388 69.0472L361.393 69.0586L362.282 68.6ZM361.382 93.65L360.506 93.1681L360.501 93.1766L360.497 93.1852L361.382 93.65ZM352.682 104L353.296 104.789L353.299 104.787L352.682 104ZM339.782 110.45L339.495 109.492L339.489 109.494L339.782 110.45ZM309.932 110.75L310.234 109.797L310.224 109.793L310.213 109.79L309.932 110.75ZM299.132 105.65L298.536 106.453L298.545 106.459L298.553 106.466L299.132 105.65ZM285.932 87.35L285.578 86.4147L284.665 86.7603L284.989 87.6815L285.932 87.35ZM302.582 81.05L303.513 80.6849L303.152 79.765L302.228 80.1147L302.582 81.05ZM310.832 92.9L310.207 93.6809L310.214 93.6864L310.221 93.6918L310.832 92.9ZM340.232 92.45L340.872 93.2182L340.878 93.213L340.885 93.2078L340.232 92.45ZM338.432 66.35L337.907 67.201L337.917 67.2075L337.928 67.2138L338.432 66.35ZM307.532 62H306.532V63H307.532V62ZM307.532 49.05H318.332V47.05H307.532V49.05ZM318.332 49.05C325.344 49.05 331.008 47.7311 335.227 44.9884L334.137 43.3116C330.356 45.7689 325.121 47.05 318.332 47.05V49.05ZM335.227 44.9884C339.546 42.181 341.682 37.8941 341.682 32.3H339.682C339.682 37.3059 337.818 40.919 334.137 43.3116L335.227 44.9884ZM341.682 32.3C341.682 27.1503 339.934 23.0456 336.365 20.126L335.099 21.674C338.13 24.1544 339.682 27.6497 339.682 32.3H341.682ZM336.377 20.1357C332.953 17.2466 328.454 15.85 322.982 15.85V17.85C328.11 17.85 332.111 19.1534 335.087 21.6643L336.377 20.1357ZM322.982 15.85C318.295 15.85 314.27 17.104 310.97 19.6593L312.194 21.2407C315.094 18.996 318.669 17.85 322.982 17.85V15.85ZM310.97 19.6593C307.693 22.1959 305.338 25.6709 303.883 30.0338L305.781 30.6662C307.126 26.6291 309.271 23.5041 312.194 21.2407L310.97 19.6593ZM305.224 29.43L289.024 22.53L288.24 24.37L304.44 31.27L305.224 29.43ZM289.558 23.8281C292.385 16.9072 296.755 11.5746 302.671 7.79252L301.593 6.10747C295.309 10.1254 290.679 15.7928 287.706 23.0719L289.558 23.8281ZM302.671 7.79252C308.582 4.01332 315.737 2.1 324.182 2.1V0.0999985C315.427 0.0999985 307.882 2.08667 301.593 6.10747L302.671 7.79252ZM324.182 2.1C329.197 2.1 333.85 2.73903 338.149 4.00901L338.715 2.09097C334.214 0.760958 329.367 0.0999985 324.182 0.0999985V2.1ZM338.169 4.01476C342.464 5.18618 346.146 6.93552 349.232 9.24999L350.432 7.64999C347.118 5.16447 343.2 3.3138 338.695 2.08523L338.169 4.01476ZM349.244 9.25873C352.41 11.5615 354.854 14.4835 356.583 18.0375L358.381 17.1625C356.51 13.3164 353.854 10.1385 350.42 7.64126L349.244 9.25873ZM356.598 18.0667C358.409 21.4992 359.332 25.5336 359.332 30.2H361.332C361.332 25.2664 360.355 20.9008 358.366 17.1332L356.598 18.0667ZM359.332 30.2C359.332 33.3652 358.71 36.2147 357.481 38.7662L359.283 39.6338C360.655 36.7853 361.332 33.6348 361.332 30.2H359.332ZM357.481 38.7662C356.227 41.3709 354.641 43.6271 352.725 45.5429L354.139 46.9571C356.223 44.8729 357.937 42.4291 359.283 39.6338L357.481 38.7662ZM352.725 45.5429C350.797 47.4709 348.63 49.0601 346.221 50.3128L347.143 52.0872C349.734 50.7399 352.067 49.0291 354.139 46.9571L352.725 45.5429ZM346.249 50.2985C343.803 51.4727 341.417 52.3481 339.09 52.9299L339.575 54.8701C342.047 54.2519 344.561 53.3273 347.115 52.1015L346.249 50.2985ZM338.332 53.9V54.2H340.332V53.9H338.332ZM339.222 55.1939C341.841 55.485 344.622 56.1174 347.566 57.0987L348.198 55.2013C345.142 54.1826 342.223 53.515 339.442 53.2061L339.222 55.1939ZM347.566 57.0987C350.442 58.0575 353.082 59.5441 355.489 61.5657L356.775 60.0343C354.182 57.8559 351.322 56.2425 348.198 55.2013L347.566 57.0987ZM355.507 61.5809C357.882 63.4804 359.845 65.9613 361.388 69.0472L363.176 68.1528C361.519 64.8387 359.382 62.1196 356.757 60.0191L355.507 61.5809ZM361.393 69.0586C362.902 71.9817 363.682 75.6147 363.682 80H365.682C365.682 75.3853 364.862 71.4183 363.171 68.1414L361.393 69.0586ZM363.682 80C363.682 84.9516 362.615 89.3324 360.506 93.1681L362.258 94.1319C364.549 89.9676 365.682 85.2484 365.682 80H363.682ZM360.497 93.1852C358.465 97.0549 355.659 100.397 352.065 103.213L353.299 104.787C357.106 101.803 360.099 98.2451 362.267 94.1148L360.497 93.1852ZM352.068 103.211C348.579 105.925 344.393 108.023 339.495 109.492L340.069 111.408C345.171 109.877 349.585 107.675 353.296 104.789L352.068 103.211ZM339.489 109.494C334.694 110.962 329.494 111.7 323.882 111.7V113.7C329.67 113.7 335.07 112.938 340.075 111.406L339.489 109.494ZM323.882 111.7C318.764 111.7 314.219 111.06 310.234 109.797L309.63 111.703C313.845 113.04 318.6 113.7 323.882 113.7V111.7ZM310.213 109.79C306.206 108.618 302.71 106.963 299.711 104.834L298.553 106.466C301.754 108.737 305.458 110.482 309.651 111.71L310.213 109.79ZM299.728 104.847C296.711 102.609 294.136 99.984 291.998 96.9713L290.367 98.1287C292.628 101.316 295.353 104.091 298.536 106.453L299.728 104.847ZM291.998 96.9713C289.853 93.9497 288.146 90.6333 286.875 87.0185L284.989 87.6815C286.319 91.4667 288.111 94.9503 290.367 98.1287L291.998 96.9713ZM286.286 88.2853L302.936 81.9853L302.228 80.1147L285.578 86.4147L286.286 88.2853ZM301.651 81.4151C303.701 86.6421 306.543 90.7496 310.207 93.6809L311.457 92.1191C308.121 89.4504 305.463 85.6579 303.513 80.6849L301.651 81.4151ZM310.221 93.6918C313.947 96.5658 318.885 97.95 324.932 97.95V95.95C319.179 95.95 314.717 94.6342 311.443 92.1082L310.221 93.6918ZM324.932 97.95C331.672 97.95 337.031 96.4189 340.872 93.2182L339.592 91.6818C336.233 94.4811 331.392 95.95 324.932 95.95V97.95ZM340.885 93.2078C344.728 89.8984 346.632 85.4601 346.632 80H344.632C344.632 84.9399 342.936 88.8016 339.579 91.6922L340.885 93.2078ZM346.632 80C346.632 73.4014 344.089 68.4924 338.936 65.4862L337.928 67.2138C342.375 69.8076 344.632 73.9986 344.632 80H346.632ZM338.957 65.499C334.026 62.4566 326.857 61 317.582 61V63C326.707 63 333.438 64.4434 337.907 67.201L338.957 65.499ZM317.582 61H307.532V63H317.582V61ZM308.532 62V48.05H306.532V62H308.532ZM403.393 93.8H402.393V94.8H403.393V93.8ZM456.193 93.8H457.193V92.8H456.193V93.8ZM456.193 110V111H457.193V110H456.193ZM385.093 110H384.093V111H385.093V110ZM385.093 3.8V2.8H384.093V3.8H385.093ZM453.943 3.8H454.943V2.8H453.943V3.8ZM453.943 20V21H454.943V20H453.943ZM403.393 20V19H402.393V20H403.393ZM403.393 47.6H402.393V48.6H403.393V47.6ZM450.793 47.6H451.793V46.6H450.793V47.6ZM450.793 63.05V64.05H451.793V63.05H450.793ZM403.393 63.05V62.05H402.393V63.05H403.393ZM403.393 94.8H456.193V92.8H403.393V94.8ZM455.193 93.8V110H457.193V93.8H455.193ZM456.193 109H385.093V111H456.193V109ZM386.093 110V3.8H384.093V110H386.093ZM385.093 4.8H453.943V2.8H385.093V4.8ZM452.943 3.8V20H454.943V3.8H452.943ZM453.943 19H403.393V21H453.943V19ZM402.393 20V47.6H404.393V20H402.393ZM403.393 48.6H450.793V46.6H403.393V48.6ZM449.793 47.6V63.05H451.793V47.6H449.793ZM450.793 62.05H403.393V64.05H450.793V62.05ZM402.393 63.05V93.8H404.393V63.05H402.393ZM475.034 3.8V2.8H474.034V3.8H475.034ZM493.784 3.8H494.784V2.8H493.784V3.8ZM493.784 46.7H492.784V47.7H493.784V46.7ZM542.834 46.7V47.7H543.834V46.7H542.834ZM542.834 3.8V2.8H541.834V3.8H542.834ZM561.584 3.8H562.584V2.8H561.584V3.8ZM561.584 110V111H562.584V110H561.584ZM542.834 110H541.834V111H542.834V110ZM542.834 62.9H543.834V61.9H542.834V62.9ZM493.784 62.9V61.9H492.784V62.9H493.784ZM493.784 110V111H494.784V110H493.784ZM475.034 110H474.034V111H475.034V110ZM475.034 4.8H493.784V2.8H475.034V4.8ZM492.784 3.8V46.7H494.784V3.8H492.784ZM493.784 47.7H542.834V45.7H493.784V47.7ZM543.834 46.7V3.8H541.834V46.7H543.834ZM542.834 4.8H561.584V2.8H542.834V4.8ZM560.584 3.8V110H562.584V3.8H560.584ZM561.584 109H542.834V111H561.584V109ZM543.834 110V62.9H541.834V110H543.834ZM542.834 61.9H493.784V63.9H542.834V61.9ZM492.784 62.9V110H494.784V62.9H492.784ZM493.784 109H475.034V111H493.784V109ZM476.034 110V3.8H474.034V110H476.034ZM626.709 110V111H627.709V110H626.709ZM607.809 110H606.809V111H607.809V110ZM607.809 20H608.809V19H607.809V20ZM575.259 20H574.259V21H575.259V20ZM575.259 3.8V2.8H574.259V3.8H575.259ZM659.259 3.8H660.259V2.8H659.259V3.8ZM659.259 20V21H660.259V20H659.259ZM626.709 20V19H625.709V20H626.709ZM626.709 109H607.809V111H626.709V109ZM608.809 110V20H606.809V110H608.809ZM607.809 19H575.259V21H607.809V19ZM576.259 20V3.8H574.259V20H576.259ZM575.259 4.8H659.259V2.8H575.259V4.8ZM658.259 3.8V20H660.259V3.8H658.259ZM659.259 19H626.709V21H659.259V19ZM625.709 20V110H627.709V20H625.709ZM680.584 110V111H681.267L681.516 110.364L680.584 110ZM660.034 110L659.114 109.609L658.523 111H660.034V110ZM705.184 3.8V2.8H704.523L704.264 3.40875L705.184 3.8ZM723.484 3.8L724.406 3.41095L724.148 2.8H723.484V3.8ZM768.334 110V111H769.842L769.256 109.611L768.334 110ZM747.334 110L746.407 110.374L746.66 111H747.334V110ZM737.584 85.85L738.512 85.4756L738.259 84.85H737.584V85.85ZM690.034 85.85V84.85H689.352L689.103 85.4856L690.034 85.85ZM695.884 70.25L694.955 69.8802L694.41 71.25H695.884V70.25ZM731.884 70.25V71.25H733.35L732.816 69.8855L731.884 70.25ZM714.034 24.65L714.966 24.2855L714.042 21.9264L713.105 24.2802L714.034 24.65ZM680.584 109H660.034V111H680.584V109ZM660.955 110.391L706.105 4.19125L704.264 3.40875L659.114 109.609L660.955 110.391ZM705.184 4.8H723.484V2.8H705.184V4.8ZM722.563 4.18904L767.413 110.389L769.256 109.611L724.406 3.41095L722.563 4.18904ZM768.334 109H747.334V111H768.334V109ZM748.262 109.626L738.512 85.4756L736.657 86.2244L746.407 110.374L748.262 109.626ZM737.584 84.85H690.034V86.85H737.584V84.85ZM689.103 85.4856L679.653 109.636L681.516 110.364L690.966 86.2144L689.103 85.4856ZM695.884 71.25H731.884V69.25H695.884V71.25ZM732.816 69.8855L714.966 24.2855L713.103 25.0145L730.953 70.6145L732.816 69.8855ZM713.105 24.2802L694.955 69.8802L696.813 70.6198L714.964 25.0198L713.105 24.2802ZM780.307 110H779.307V111H780.307V110ZM780.307 3.8V2.8H779.307V3.8H780.307ZM799.057 3.8H800.057V2.8H799.057V3.8ZM799.057 93.8H798.057V94.8H799.057V93.8ZM846.157 93.8V94.8H847.157V93.8H846.157ZM846.157 3.8V2.8H845.157V3.8H846.157ZM864.907 3.8H865.907V2.8H864.907V3.8ZM864.907 93.8H863.907V94.8H864.907V93.8ZM877.057 93.8H878.057V92.8H877.057V93.8ZM877.057 130.85V131.85H878.057V130.85H877.057ZM860.707 130.85H859.707V131.85H860.707V130.85ZM860.707 110H861.707V109H860.707V110ZM781.307 110V3.8H779.307V110H781.307ZM780.307 4.8H799.057V2.8H780.307V4.8ZM798.057 3.8V93.8H800.057V3.8H798.057ZM799.057 94.8H846.157V92.8H799.057V94.8ZM847.157 93.8V3.8H845.157V93.8H847.157ZM846.157 4.8H864.907V2.8H846.157V4.8ZM863.907 3.8V93.8H865.907V3.8H863.907ZM864.907 94.8H877.057V92.8H864.907V94.8ZM876.057 93.8V130.85H878.057V93.8H876.057ZM877.057 129.85H860.707V131.85H877.057V129.85ZM861.707 130.85V110H859.707V130.85H861.707ZM860.707 109H780.307V111H860.707V109ZM912.59 83.6V84.6H913.131L913.427 84.1474L912.59 83.6ZM964.79 3.8V2.8H964.249L963.953 3.25258L964.79 3.8ZM986.69 3.8H987.69V2.8H986.69V3.8ZM986.69 110V111H987.69V110H986.69ZM967.94 110H966.94V111H967.94V110ZM967.94 30.2H968.94V29.2H967.94V30.2ZM967.64 30.2V29.2H967.1L966.804 29.6515L967.64 30.2ZM915.29 110V111H915.83L916.126 110.549L915.29 110ZM893.54 110H892.54V111H893.54V110ZM893.54 3.8V2.8H892.54V3.8H893.54ZM912.29 3.8H913.29V2.8H912.29V3.8ZM912.29 83.6H911.29V84.6H912.29V83.6ZM913.427 84.1474L965.627 4.34742L963.953 3.25258L911.753 83.0526L913.427 84.1474ZM964.79 4.8H986.69V2.8H964.79V4.8ZM985.69 3.8V110H987.69V3.8H985.69ZM986.69 109H967.94V111H986.69V109ZM968.94 110V30.2H966.94V110H968.94ZM967.94 29.2H967.64V31.2H967.94V29.2ZM966.804 29.6515L914.454 109.451L916.126 110.549L968.476 30.7485L966.804 29.6515ZM915.29 109H893.54V111H915.29V109ZM894.54 110V3.8H892.54V110H894.54ZM893.54 4.8H912.29V2.8H893.54V4.8ZM911.29 3.8V83.6H913.29V3.8H911.29ZM912.29 84.6H912.59V82.6H912.29V84.6ZM1068.16 20H1069.16V19H1068.16V20ZM1033.81 23.75L1034.3 24.6182L1034.31 24.6138L1034.32 24.6093L1033.81 23.75ZM1033.66 46.1L1034.21 45.2648L1033.66 46.1ZM1068.16 50.15V51.15H1069.16V50.15H1068.16ZM1031.41 59.45H1032.41V58.6029L1031.57 58.4636L1031.41 59.45ZM1014.01 51.5L1013.31 52.2154L1013.32 52.2236L1013.32 52.2316L1014.01 51.5ZM1007.56 34.55H1008.56L1008.56 34.54L1007.56 34.55ZM1018.81 11.75L1019.37 12.5753L1019.37 12.5737L1018.81 11.75ZM1086.91 3.8H1087.91V2.8H1086.91V3.8ZM1086.91 110V111H1087.91V110H1086.91ZM1068.16 110H1067.16V111H1068.16V110ZM1068.16 66.35H1069.16V65.35H1068.16V66.35ZM1044.76 68.9L1044.36 67.9833L1044.76 68.9ZM1034.41 76.7L1033.65 76.0492V76.0492L1034.41 76.7ZM1026.91 90.35L1025.96 90.0136L1025.96 90.0235L1026.91 90.35ZM1022.86 110V111H1023.76L1023.85 110.105L1022.86 110ZM1002.46 110L1001.46 109.937L1001.39 111H1002.46V110ZM1005.61 92.6L1006.56 92.9054L1006.56 92.9003L1005.61 92.6ZM1011.91 78.2L1011.05 77.6826L1011.05 77.6885L1011.91 78.2ZM1020.76 67.1L1021.44 67.8288L1020.76 67.1ZM1031.41 59.75L1031.83 60.6537L1032.41 60.3828V59.75H1031.41ZM1068.16 19H1053.16V21H1068.16V19ZM1053.16 19C1044.4 19 1037.73 20.2518 1033.29 22.8907L1034.32 24.6093C1038.28 22.2482 1044.52 21 1053.16 21V19ZM1033.31 22.8818C1028.76 25.4796 1026.51 29.6829 1026.51 35.3H1028.51C1028.51 30.3171 1030.45 26.8204 1034.3 24.6182L1033.31 22.8818ZM1026.51 35.3C1026.51 40.1711 1028.76 44.0701 1033.11 46.9352L1034.21 45.2648C1030.36 42.7299 1028.51 39.4289 1028.51 35.3H1026.51ZM1033.11 46.9352C1037.46 49.7992 1044.2 51.15 1053.16 51.15V49.15C1044.31 49.15 1038.06 47.8008 1034.21 45.2648L1033.11 46.9352ZM1053.16 51.15H1068.16V49.15H1053.16V51.15ZM1069.16 50.15V20H1067.16V50.15H1069.16ZM1031.57 58.4636C1024.52 57.2889 1018.92 54.7083 1014.69 50.7684L1013.32 52.2316C1017.9 56.4917 1023.89 59.2111 1031.24 60.4364L1031.57 58.4636ZM1014.7 50.7846C1010.63 46.8067 1008.56 41.4334 1008.56 34.55H1006.56C1006.56 41.8666 1008.78 47.7933 1013.31 52.2154L1014.7 50.7846ZM1008.56 34.54C1008.46 24.8397 1012.07 17.5685 1019.37 12.5753L1018.24 10.9247C1010.34 16.3315 1006.45 24.2603 1006.56 34.56L1008.56 34.54ZM1019.37 12.5737C1026.84 7.43261 1037.46 4.8 1051.36 4.8V2.8C1037.25 2.8 1026.17 5.46739 1018.24 10.9263L1019.37 12.5737ZM1051.36 4.8H1086.91V2.8H1051.36V4.8ZM1085.91 3.8V110H1087.91V3.8H1085.91ZM1086.91 109H1068.16V111H1086.91V109ZM1069.16 110V66.35H1067.16V110H1069.16ZM1068.16 65.35H1057.66V67.35H1068.16V65.35ZM1057.66 65.35C1052.83 65.35 1048.4 66.2229 1044.36 67.9833L1045.16 69.8167C1048.92 68.1771 1053.08 67.35 1057.66 67.35V65.35ZM1044.36 67.9833C1040.31 69.7486 1036.74 72.4443 1033.65 76.0492L1035.17 77.3508C1038.08 73.9557 1041.41 71.4514 1045.16 69.8167L1044.36 67.9833ZM1033.65 76.0492C1030.55 79.6646 1027.99 84.3303 1025.96 90.0137L1027.85 90.6863C1029.82 85.1696 1032.26 80.7354 1035.17 77.3508L1033.65 76.0492ZM1025.96 90.0235C1024.03 95.6136 1022.67 102.242 1021.86 109.895L1023.85 110.105C1024.65 102.558 1025.98 96.0864 1027.85 90.6765L1025.96 90.0235ZM1022.86 109H1002.46V111H1022.86V109ZM1003.45 110.063C1003.85 103.835 1004.89 98.1173 1006.56 92.9054L1004.65 92.2946C1002.93 97.6827 1001.86 103.565 1001.46 109.937L1003.45 110.063ZM1006.56 92.9003C1008.24 87.5628 1010.31 82.8355 1012.77 78.7115L1011.05 77.6885C1008.5 81.9645 1006.37 86.8372 1004.65 92.2997L1006.56 92.9003ZM1012.76 78.7174C1015.32 74.4869 1018.21 70.8601 1021.44 67.8288L1020.07 66.3711C1016.7 69.5399 1013.69 73.3131 1011.05 77.6826L1012.76 78.7174ZM1021.44 67.8288C1024.67 64.7947 1028.14 62.4059 1031.83 60.6537L1030.98 58.8463C1027.08 60.6941 1023.44 63.2053 1020.07 66.3711L1021.44 67.8288ZM1032.41 59.75V59.45H1030.41V59.75H1032.41Z" fill="#55A0FF"/>
    <path d="M85.15 8.8V115H66.4V25H20.2V115H1.45V8.8H85.15ZM109.995 8.8H144.795C150.395 8.8 155.595 9.4 160.395 10.6C165.195 11.7 169.295 13.5 172.695 16C176.195 18.5 178.895 21.7 180.795 25.6C182.795 29.4 183.795 34.05 183.795 39.55C183.795 45.05 182.745 49.8 180.645 53.8C178.645 57.7 175.845 60.9 172.245 63.4C168.745 65.9 164.595 67.75 159.795 68.95C154.995 70.05 149.845 70.6 144.345 70.6H128.745V115H109.995V8.8ZM128.745 55.45H142.995C146.195 55.45 149.145 55.15 151.845 54.55C154.545 53.95 156.845 53 158.745 51.7C160.745 50.4 162.245 48.75 163.245 46.75C164.345 44.75 164.895 42.35 164.895 39.55C164.895 36.65 164.345 34.25 163.245 32.35C162.145 30.35 160.645 28.75 158.745 27.55C156.845 26.35 154.545 25.5 151.845 25C149.245 24.5 146.395 24.25 143.295 24.25H128.745V55.45ZM220.141 98.8H272.941V115H201.841V8.8H270.691V25H220.141V52.6H267.541V68.05H220.141V98.8ZM307.532 53.05H318.332C325.232 53.05 330.682 51.75 334.682 49.15C338.682 46.55 340.682 42.6 340.682 37.3C340.682 32.4 339.032 28.6 335.732 25.9C332.532 23.2 328.282 21.85 322.982 21.85C318.482 21.85 314.682 23.05 311.582 25.45C308.482 27.85 306.232 31.15 304.832 35.35L288.632 28.45C291.532 21.35 296.032 15.85 302.132 11.95C308.232 8.05 315.582 6.1 324.182 6.1C329.282 6.1 334.032 6.75 338.432 8.04999C342.832 9.24999 346.632 11.05 349.832 13.45C353.132 15.85 355.682 18.9 357.482 22.6C359.382 26.2 360.332 30.4 360.332 35.2C360.332 38.5 359.682 41.5 358.382 44.2C357.082 46.9 355.432 49.25 353.432 51.25C351.432 53.25 349.182 54.9 346.682 56.2C344.182 57.4 341.732 58.3 339.332 58.9V59.2C342.032 59.5 344.882 60.15 347.882 61.15C350.882 62.15 353.632 63.7 356.132 65.8C358.632 67.8 360.682 70.4 362.282 73.6C363.882 76.7 364.682 80.5 364.682 85C364.682 90.1 363.582 94.65 361.382 98.65C359.282 102.65 356.382 106.1 352.682 109C349.082 111.8 344.782 113.95 339.782 115.45C334.882 116.95 329.582 117.7 323.882 117.7C318.682 117.7 314.032 117.05 309.932 115.75C305.832 114.55 302.232 112.85 299.132 110.65C296.032 108.35 293.382 105.65 291.182 102.55C288.982 99.45 287.232 96.05 285.932 92.35L302.582 86.05C304.582 91.15 307.332 95.1 310.832 97.9C314.332 100.6 319.032 101.95 324.932 101.95C331.532 101.95 336.632 100.45 340.232 97.45C343.832 94.35 345.632 90.2 345.632 85C345.632 78.7 343.232 74.15 338.432 71.35C333.732 68.45 326.782 67 317.582 67H307.532V53.05ZM403.393 98.8H456.193V115H385.093V8.8H453.943V25H403.393V52.6H450.793V68.05H403.393V98.8ZM475.034 8.8H493.784V51.7H542.834V8.8H561.584V115H542.834V67.9H493.784V115H475.034V8.8ZM626.709 115H607.809V25H575.259V8.8H659.259V25H626.709V115ZM680.584 115H660.034L705.184 8.8H723.484L768.334 115H747.334L737.584 90.85H690.034L680.584 115ZM695.884 75.25H731.884L714.034 29.65L695.884 75.25ZM780.307 115V8.8H799.057V98.8H846.157V8.8H864.907V98.8H877.057V135.85H860.707V115H780.307ZM912.59 88.6L964.79 8.8H986.69V115H967.94V35.2H967.64L915.29 115H893.54V8.8H912.29V88.6H912.59ZM1068.16 25H1053.16C1044.46 25 1038.01 26.25 1033.81 28.75C1029.61 31.15 1027.51 35 1027.51 40.3C1027.51 44.8 1029.56 48.4 1033.66 51.1C1037.76 53.8 1044.26 55.15 1053.16 55.15H1068.16V25ZM1031.41 64.45C1024.21 63.25 1018.41 60.6 1014.01 56.5C1009.71 52.3 1007.56 46.65 1007.56 39.55C1007.46 29.55 1011.21 21.95 1018.81 16.75C1026.51 11.45 1037.36 8.8 1051.36 8.8H1086.91V115H1068.16V71.35H1057.66C1052.96 71.35 1048.66 72.2 1044.76 73.9C1040.86 75.6 1037.41 78.2 1034.41 81.7C1031.41 85.2 1028.91 89.75 1026.91 95.35C1025.01 100.85 1023.66 107.4 1022.86 115H1002.46C1002.86 108.7 1003.91 102.9 1005.61 97.6C1007.31 92.2 1009.41 87.4 1011.91 83.2C1014.51 78.9 1017.46 75.2 1020.76 72.1C1024.06 69 1027.61 66.55 1031.41 64.75V64.45Z" fill="url(#paint0_linear)"/>
    <defs>
        <linearGradient id="paint0_linear" x1="553.395" y1="-74.7" x2="553.115" y2="194.033" gradientUnits="userSpaceOnUse">
            <stop stop-color="#FFF289"/>
            <stop offset="1" stop-color="#FF5592"/>
            <stop offset="1" stop-color="#780060"/>
        </linearGradient>
    </defs>
</svg>
